<svg viewBox="0 0 700 450" xmlns="http://www.w3.org/2000/svg" fill-rule="evenodd" clip-rule="evenodd" stroke-linecap="round" stroke-miterlimit="1"><title>Ramdomized shapes and colors</title><path fill="none" d="M0 0h700v450H0z"/><circle cx="108.829" cy="119.093" r="16.888" fill="#6cd1ef"/><circle cx="215.267" cy="331.196" r="9.273" fill="#6cd1ef"/><circle cx="414.888" cy="106.454" r="6.332" fill="#6cd1ef"/><circle cx="523.046" cy="357.486" r="10.253" fill="#fbf59b"/><circle cx="625.524" cy="326.882" r="5.428" fill="#f8aadd"/><circle cx="197.836" cy="106.565" r="3.449" fill="#ba93df"/><circle cx="60.229" cy="226.388" r="3.449" fill="#fbf59b"/><circle cx="170.431" cy="395.594" r="1.817" fill="#6cd1ef"/><circle cx="498.548" cy="74.247" r="1.817" fill="#f8aadd"/><circle cx="657.468" cy="13.34" r="1.817" fill="#ba93df"/><circle cx="618.888" cy="294.643" r="1.817" fill="#ba93df"/><circle cx="371.952" cy="69.409" r="1.817" fill="#ba93df"/><circle cx="623.191" cy="107.787" r="6.382" fill="#78e6d0"/><circle cx="144.18" cy="386.93" r="5.262" fill="#f8aadd"/><path d="M295.674 173.121l-15.696 8.066 8.066 15.695 15.695-8.065-8.065-15.696z" fill="#ba93df"/><path d="M548.367 264.794l-16.946 5.485 5.485 16.946 16.946-5.485-5.485-16.946zM222.321 172.28l-10.43 3.376 3.376 10.43 10.43-3.376-3.376-10.43z" fill="#f8aadd"/><path d="M351.922 400.352l-9.32 4.79 4.789 9.32 9.321-4.79-4.79-9.32z" fill="#ba93df"/><path d="M290.303 313.207l-5.863-1.403-1.404 5.863 5.863 1.403 1.404-5.863z" fill="#78e6d0"/><path d="M265.112 102.348l-5.937 1.045 1.044 5.937 5.938-1.044-1.045-5.938z" fill="#6cd1ef"/><path d="M590.312 207.798l-5.938 1.044 1.045 5.938 5.937-1.045-1.044-5.937z" fill="#ba93df"/><path d="M123.58 275.31l-3.435 9.9 9.901 3.435 3.435-9.9-9.901-3.435z" fill="#f8aadd"/><path d="M444.041 135.177l-3.435 9.9 9.901 3.435 3.435-9.9-9.901-3.435zM284.412 230.434l-3.435 9.901 9.901 3.435 3.435-9.901-9.901-3.435z" fill="#fbf59b"/><path d="M392.49 163.914l-1.833 5.284 5.284 1.833 1.834-5.284-5.285-1.833z" fill="#ba93df"/><path d="M121.006 189.395l-1.833 5.284 5.284 1.833 1.833-5.284-5.284-1.833z" fill="#78e6d0"/><path d="M180.333 271.624l1.182 5.466 5.467-1.182-1.183-5.467-5.466 1.183z" fill="#fbf59b"/><path d="M24.684 269.841l1.183 5.466 5.466-1.183-1.182-5.466-5.467 1.183z" fill="#f8aadd"/><path d="M546.706 383.962l1.182 5.466 5.467-1.183-1.183-5.466-5.466 1.183z" fill="#78e6d0"/><path d="M428.344 288.49l-15.769-4.45-4.45 15.769 15.769 4.45 4.45-15.769z" fill="#ba93df"/><g fill="none" stroke="#78e6d0" stroke-width="2"><path d="M322.474 236.491c7.614 4.752 16.024 15 25 15 8.975 0 16.024-10 25-10 8.975 0 17.385 10.249 25 15"/><path d="M322.474 226.491c7.614 4.752 16.024 15 25 15 8.975 0 16.024-10 25-10 8.975 0 17.385 10.249 25 15"/><path d="M322.474 216.491c7.614 4.752 16.024 15 25 15 8.975 0 16.024-10 25-10 8.975 0 17.385 10.249 25 15"/></g><g fill="none" stroke="#ffb1be"><path d="M503.155 143.265c.128 3.699-1.44 8.936.627 12.006 2.067 3.071 7.112 3.179 9.179 6.249s.499 8.307.627 12.006"/><path d="M506.575 140.961c.129 3.7-1.44 8.937.628 12.007 2.067 3.07 7.111 3.178 9.179 6.248 2.067 3.07.499 8.308.627 12.007"/><path d="M509.996 138.658c.128 3.699-1.44 8.937.627 12.007 2.068 3.07 7.112 3.178 9.179 6.248 2.068 3.07.499 8.307.628 12.006"/></g><g fill="none" stroke="#fbf59b"><path d="M46.811 302.945c2.963 2.219 6.059 6.725 9.747 7.039 3.688.315 6.935-3.547 10.623-3.232 3.688.314 6.784 4.82 9.746 7.039"/><path d="M47.162 298.836c2.962 2.219 6.059 6.725 9.746 7.04 3.688.314 6.935-3.548 10.623-3.233 3.688.314 6.785 4.82 9.747 7.039"/><path d="M47.512 294.727c2.962 2.219 6.059 6.725 9.747 7.04 3.688.314 6.935-3.548 10.623-3.233 3.688.314 6.784 4.82 9.746 7.039"/></g></svg>