<svg viewBox="0 0 101 21" xmlns="http://www.w3.org/2000/svg" fill-rule="evenodd" clip-rule="evenodd" stroke-linejoin="round" stroke-miterlimit="2"><title>Cvent Logo</title><path fill="none" d="M.201.461h100v20h-100z"/><g fill-rule="nonzero"><path d="M86.207 7.521l7.3-7.06h.25v4.26h5.7v3.34h-5.7v6.02c0 1.87 1.11 2.8 2.9 2.8a5.798 5.798 0 003.53-1.14v3.44a8.73 8.73 0 01-4.48 1.05 5.836 5.836 0 01-4.86-2.12c-.26-.33-.52-.81-.7-1.34-.17-.52-.26-1.53-.26-3v-5.71h-3.67l-.01-.54zM69.917 5.151v1.87a12.33 12.33 0 017.12-2.2c1.4 0 2.71.24 3.92.72a5.1 5.1 0 012.55 1.97c.62.93.95 2.16.95 3.97v8.5h-4.2v-7.8c0-1.52-.58-2.61-1.28-3.26-.7-.65-1.87-1.07-3.52-1.07-2.11 0-4.02.8-5.54 2.2v9.92h-4.28V5.161l4.28-.01zM46.477 10.241a4.494 4.494 0 012.15-2.25 8.155 8.155 0 013.9-.84c1.56 0 2.73.38 3.65.91a3.633 3.633 0 011.83 2.17l-11.53.01zm15.81 2.34c0-1.72-.38-3.67-2.19-5.35-1.75-1.62-4.18-2.57-7.43-2.57-3.37 0-6.18.5-8.07 2.2a7.147 7.147 0 00-2.63 5.58 7.488 7.488 0 004.65 6.81c1.65.79 4.01 1.08 6.7 1.08 4.02 0 7.04-.89 8.63-1.97v-3.07a16.623 16.623 0 01-7.9 1.82c-2.28 0-3.45-.08-5.44-.94-1.41-.6-2.5-1.88-2.5-3.2l16.18-.01v-.38zM36.957 5.151h4.79l-9.89 14.88h-1.56l-10.12-14.88h4.83l6.09 9.35 5.86-9.35z"/><path d="M18.737 15.991v3.55c-2.36.56-4.66.84-6.91.84-3.72 0-6.46-.7-8.56-2.1a6.38 6.38 0 01-3.05-5.62c0-2.37.9-4.34 2.94-5.8 2.04-1.45 4.68-2.11 8.19-2.11a22.066 22.066 0 016.9 1.05v3.62a16.523 16.523 0 00-6.63-1.33c-1.96 0-4.06.49-5.27 1.26a3.717 3.717 0 00-1.8 3.21c0 1.31.76 2.43 2 3.21 1.3.84 3.78 1.22 5.96 1.22 1.81 0 3.88-.33 6.23-1z" fill="#4a90e2"/></g></svg>