<svg viewBox="0 0 101 28" xmlns="http://www.w3.org/2000/svg" fill-rule="evenodd" clip-rule="evenodd" stroke-linejoin="round" stroke-miterlimit="2"><title>SpotMe Logo</title><path fill="none" d="M.154.461h100v27h-100z"/><g fill-rule="nonzero"><path d="M10.472 4.7c0 2.345-1.779 4.246-3.971 4.246S2.529 7.045 2.529 4.7c0-2.337 1.78-4.239 3.972-4.239s3.971 1.902 3.971 4.239zM15.979 23.916c.214-.305.397-.664.611-.97.214-.305.543-.397.802-.183.138.115 1.955 1.619 3.766 1.619 1.626 0 2.665-.993 2.665-2.184 0-1.413-1.222-2.307-3.559-3.269-2.398-1.016-4.277-2.261-4.277-4.988 0-1.833 1.405-4.353 5.148-4.353 2.36 0 4.124 1.222 4.353 1.39a.549.549 0 01.145.794l-.588.894c-.191.305-.496.451-.825.237-.168-.092-1.81-1.177-3.177-1.177-1.986 0-2.658 1.245-2.658 2.116 0 1.344 1.031 2.169 2.986 2.971 2.735 1.1 5.064 2.398 5.064 5.27 0 2.444-2.192 4.438-5.255 4.438a7.638 7.638 0 01-5.056-1.856c-.214-.184-.382-.352-.145-.749zM31.255 18.18v-5.881h3.207c1.604 0 2.949 1.238 2.949 2.849a2.986 2.986 0 01-2.949 3.032h-3.207zm-2.383 7.89a.45.45 0 00.443.458h1.504a.458.458 0 00.443-.458v-5.568h3.361c2.841 0 5.186-2.39 5.186-5.331a5.248 5.248 0 00-5.201-5.239h-5.293a.443.443 0 00-.443.45V26.07zM49.577 24.619a6.117 6.117 0 01-6.072-6.133c0-3.361 2.75-6.187 6.072-6.187a6.19 6.19 0 014.316 1.844 6.19 6.19 0 011.779 4.343c0 3.383-2.742 6.133-6.095 6.133zm0-14.687c-4.689 0-8.416 3.819-8.416 8.554a8.428 8.428 0 0016.856 0c0-4.735-3.742-8.554-8.44-8.554zM62.73 12.162h-3.812a.452.452 0 01-.443-.458v-1.322c0-.236.184-.45.443-.45h10.051a.45.45 0 01.444.45v1.329a.455.455 0 01-.444.451h-3.811V26.07a.458.458 0 01-.443.443h-1.543a.455.455 0 01-.442-.443V12.162zM72.277 10.283c.046-.183.229-.351.42-.351h.366c.138 0 .344.114.39.259l4.812 12.106h.099l4.789-12.113c.053-.145.229-.26.397-.26h.366c.184 0 .367.168.413.351l2.841 15.917c.069.336-.091.55-.42.55h-1.497a.473.473 0 01-.27-.1.475.475 0 01-.165-.236l-1.719-10.57h-.061l-4.155 10.899a.395.395 0 01-.389.259h-.413c-.183 0-.351-.122-.397-.259l-4.17-10.899h-.092l-1.657 10.585c-.023.168-.229.336-.42.336h-1.497c-.321 0-.481-.213-.435-.549l2.864-15.925zM90.027 10.474a.45.45 0 01.443-.451h9.241c.26 0 .443.214.443.459v1.336c0 .229-.183.451-.435.451h-7.31v4.873h6.179c.23 0 .436.213.436.458v1.336a.45.45 0 01-.436.459h-6.186v5.132h7.317c.252 0 .435.214.435.458v1.314c0 .229-.183.451-.435.451H90.47a.442.442 0 01-.443-.458V10.474z" fill="#e85224"/><path d="M10.755 13.132c.061.076.069.168 0 .237-.229.275-.825.947-1.199 1.359-.107.122-.306.038-.306-.122l.077-2.498a.18.18 0 01.305-.122l1.123 1.146zm-6.859-1.146a.174.174 0 01.189-.036.173.173 0 01.078.063c.02.028.031.061.031.095l.077 2.498c0 .16-.199.244-.306.122-.382-.412-.962-1.084-1.207-1.359a.178.178 0 01.008-.23c.229-.252.787-.809 1.13-1.145v-.008zm5.545 5.652a.724.724 0 01.207-.741l3.559-3.177a.497.497 0 00.116-.157.485.485 0 00-.101-.546c-.68-.664-2.062-1.986-2.826-2.749a1.163 1.163 0 00-.825-.336H3.95c-.306 0-.596.122-.817.336L.299 13.017a.486.486 0 00-.101.546.497.497 0 00.116.157l3.56 3.177a.71.71 0 01.206.741l-2.139 7.095c-.061.176-1.26 1.207-1.734 1.62a.095.095 0 00-.025.05.097.097 0 00.041.1.1.1 0 00.053.018h4.239a.188.188 0 00.183-.161c.726-4.353 1.306-6.431 1.711-7.439a.384.384 0 01.703 0c.405 1.008.985 3.078 1.711 7.439a.19.19 0 00.191.161h4.239c.084 0 .129-.107.061-.168-.474-.413-1.673-1.451-1.734-1.62l-2.139-7.095z" fill="#353431"/></g></svg>