<svg viewBox="0 0 500 1000" xmlns="http://www.w3.org/2000/svg" fill-rule="evenodd" clip-rule="evenodd" stroke-linejoin="round" stroke-miterlimit="2"><title>Mobile user illustration</title><g transform="matrix(.91457 0 0 1.13344 -307.164 -706.987)"><path fill="none" d="M335.855 623.756h546.703v882.273H335.855z"/><clipPath id="a"><path d="M335.855 623.756h546.703v882.273H335.855z"/></clipPath><g clip-path="url(#a)"><g transform="matrix(1.52958 0 0 1.23423 -1426.63 -257.129)"><path d="M1272.14 1176.288l-21.79 108.1 23.42 99.34 35.52.73-9.24-100.51 42.2-105.28-70.11-2.38zM1351.48 1174.698l39.9 118.49 57.82 70.66 28.69-19.18-47.38-65.47-9.89-102.91-69.14-1.59z" fill="#f1c27d"/><path d="M1479.708 1349.988l-58.43-69.62-8.91-95.26 18-.92 4.57 96.18 50.89 69.62h-6.12zM1305.04 1384.458l-14.75-104.09 30.78-95.26 21.18 3.49c-14.42 30.87-27.22 61.47-38.29 91.77l7.2 104.09h-6.12z" fill="#e0ac69"/><path d="M1211.41 1421.428l10.6-11.67 21.37-4.68 18.89-8.85 1.81-12.53 48.18-4.44 5.64 37-15.92 12.3h-79.36l-11.21-7.13zM1414.68 1428.558l6.56-16.58 19.69-5.74 10.57-22.54-3.34-19.85 37.58-22.87 21.09 23.41 2.85 17.48-47.3 46.66-47.7.03z" fill="#7e6d67"/><path d="M1427.05 1412.11l16.31-4.35 11.27-24.38-3.84-17.37 13.31-7.59 4.5 21.27-17.61 31.31-22.11 3.19-1.83-2.08zM1227.11 1410.84l19.24-3.3 20.69-10.23.9-11.01h9.38l-2.21 15.37-25.82 10.07-20.35 2.45-1.83-3.35z" fill="#998680"/><path d="M1261.91 923.644s-11.22-19.411-12.36-26.156c-1.15-6.744 2.38-26.137 2.38-26.137l-7.24-4.461s-7.8 9.097-10.22 21.324l-17.03 22.065 24.9 27.763 19.57-14.398z" fill="#f1c27d"/><path d="M1274.76 1093.958l-16.29 99.54h113.33l19.63-97.89-116.67-1.65z" fill="#484058"/><path d="M1299.38 1087.448l55.92 118.26 79.68-19.26 7.97-92.49-143.57-6.51z" fill="#4e4464"/><path d="M1291.51 853.649c13.7-9.326 100.11-4.332 100.11-4.332s25.56 2.397 31.26 25.016c5.7 22.619 42.16 87.216 45.38 116.815 2.39 21.94-7.92 44.79-26.03 60.78l10.61 50.12-192.47 3.28 5.16-73.31s-15.81 2.65-27.24-8.02c-10.24-9.55-3.21-92.034-3.21-92.034l24.61-16.577 12.45 8.139s-5.72-52.806 19.37-69.877z" fill="#b56d6d"/><path d="M1409.352 923.644l2.69-14.184c.4-2.382 1.47-4.522 2.95-6.324 1.44-1.761 3.32-3.176 5.52-4.016 1.05-.444 2.15-.897 3.26-1.384 1.63-.711 3.27-1.474 4.85-2.188 1.38-.648 2.62-1.534 3.6-2.655a10.744 10.744 0 002.19-3.802c.43-1.393.6-2.834.45-4.257a10.291 10.291 0 00-1.24-3.978l-1.91-3.366 1.37 3.62c.46 1.214.66 2.489.61 3.763a9.069 9.069 0 01-.89 3.59c-.51 1.112-1.26 2.072-2.15 2.876a8.748 8.748 0 01-3.02 1.768c-1.63.592-3.34 1.19-5 1.815-1.14.427-2.24.873-3.3 1.285-2.67 1.152-4.96 2.942-6.57 5.23a15.233 15.233 0 00-2.74 7.786l-.67 14.42z" fill="#eae9e7"/><path d="M1267.62 975.016l-8-59.318 12.74 8.228-4.74 51.09zM1423.089 1056.832s-10.13 1.25-15.81-7.21c-5.71-8.5-14.59-38.02-14.29-65.306.33-30.423 23.99-25.783 23.99-25.783s12.77 43.77 11.13 91.04l-5.02 7.26z" fill="#9d5151"/><path d="M1408.85 958.346s6.76 4.593 4.97 23.173c-1.4 14.574 10.1 35.129 11.82 50.739 2.08 18.94-2.49 24.64-2.49 24.64l9.78-8.94-7.67-95.994-16.41 6.382z" fill="#b56d6d"/><path d="M1176.8 836.847l40.64-1.313s6.65-.533 8.3 4.624c1.65 5.156 17.98 71.203 18.34 72.505.84 3.094-2.06 5.495-4.4 5.72-5.81.557-35.39 2.032-35.39 2.032l-4.97-4.896-24.8-71.074s-1.8-4.394 2.28-7.598z" fill="#e97830"/><path d="M1197.06 887.534s23.35-.506 28.28 5.032c4.51 5.06 5.72 21.232 5.72 21.232s-.95 5.632-6.67 5.198c-9.94-.754-27.33-31.462-27.33-31.462z" fill="#ba6026"/><path d="M1202.06 846.09a.468.468 0 00.41-.502.47.47 0 00-.47-.447l-18.11-.074a1.1 1.1 0 00-.88.448c-.2.282-.26.646-.15.977 2.69 8.127 15.91 48.11 15.91 48.11l4.14.785s-13.01-39.22-15.37-46.313a.949.949 0 01.78-1.238l13.74-1.746z" fill="#ba6026"/><path d="M1192.74 888.173a5.592 5.592 0 00-3.84 1.199c-2.35 1.873-6.07 5.599-5.84 10.31.24 4.887 6.15 17.31 9.54 24.059a10.216 10.216 0 007.24 5.455l17.07 3.209a6.051 6.051 0 004.86-1.186c3.14-2.471 8.38-7.248 8.06-11.403-.46-5.91-4.68-22.827-4.68-22.827s-1.61-4.91-8.66-6.386c-5.65-1.182-18.75-2.108-23.75-2.43z" fill="#f1c27d"/><path d="M1363.08 998.075l1.7-65.184 47.59 8.5-24.96 61.427-24.33-4.743z" fill="#eae9e7"/><path d="M1365.6 948.203l-.82-6.266s32.87 7.579 34.22 8.976c1.29 1.323.06 3.407 1.32 4.356 1.45 1.098 6.47 3.7 6.47 3.7l-1.64 5.173-39.55-15.94z" fill="#cfcfcf"/><path d="M1365.15 926.339l-3.37 6.552 52.88 10.235-.21-6.866-49.3-9.921z" fill="#d9d9d9"/><path d="M1416.82 998.075l-52.04-19.373s-7.08-2.507-6.78-7.163c.11-1.655 1.49-26.848 1.49-26.848s1.11-4.533 5.29-2.974c1.7.634 28.78 9.53 28.78 9.53s2.99.987 2.96 4.103c-.04 3.205 8.46 4.397 8.46 4.397l2.3-5.598s6.85 1.423 7.95 9.637c1.11 8.213 1.59 34.289 1.59 34.289z" fill="#f1c27d"/><path d="M1329.52 826.312s-47.69 12.585-54.31 8.158c-6.63-4.428-1.33-74.981 4.63-89.267 5.96-14.285 24.3-32.02 55.04-31.476 30.74.544 46.06 5.249 51.55 20.584 5.49 15.334 20.86 74.414 25.38 82.235 4.51 7.82-18.66 22.115-51.11 20.478-32.45-1.638-31.18-10.712-31.18-10.712z" fill="#5A3825"/><path d="M1368.33 851.363s-16.63-6.586-7.12-45.517l-46.58 5.293s5.82 27.162-.5 41.13c0 0 16.93 26.388 54.2-.906z" fill="#f1c27d"/><path d="M1315.48 839.306s13.77 10.756 29.26 1.29c6.08-3.714 10.56-20.076 10.56-20.076l-39.82 18.786z" fill="#e0ac69"/><path d="M1339.27 835.633a36.11 36.11 0 0018.99-19.624c7.39-18.418 17.25-51.111 2.19-66.866-21.62-22.635-65.66-3.94-65.66-3.94s-20.31 52.51 4.38 95.018c5.12 8.819 26.09 1.554 40.1-4.588z" fill="#f1c27d"/><path d="M1283.6 751.679s58.17-13.462 74.07 17.35c3.84 7.443 6.19 21.805 6.89 26.545.15 1.017.21 2.043.19 3.07-.09 5.322-.4 22.894-.4 22.894l27.27-36.045-20.5-56.57-70.65-.415-16.87 23.17z" fill="#5A3825"/><path d="M1369.06 790.985s.9 21.898 9.74 30.494c8.83 8.596-19.67 14.02-19.67 14.02s-5.82-27.084 9.93-44.514z" fill="#3D2314"/><path d="M1352.28 775.434s10.53-15.597 18.84-8.87 5.69 22.229 0 28.004c-5.69 5.775-15.85 0-15.85 0l-2.99-19.134z" fill="#f1c27d"/><path d="M1380.741 910.848l2.69-14.184c.4-2.382 1.47-4.522 2.95-6.324 1.44-1.761 3.32-3.176 5.52-4.016 1.05-.444 2.15-.897 3.26-1.384 1.63-.711 3.27-1.474 4.85-2.188 1.38-.648 2.62-1.534 3.6-2.655a10.744 10.744 0 002.19-3.802c.43-1.393.6-2.834.45-4.257a10.291 10.291 0 00-1.24-3.978l-1.91-3.366 1.37 3.62c.46 1.214.66 2.489.61 3.763a9.069 9.069 0 01-.89 3.59c-.51 1.112-1.26 2.072-2.15 2.876a8.748 8.748 0 01-3.02 1.768c-1.63.592-3.34 1.19-5 1.815-1.14.427-2.24.873-3.3 1.285-2.67 1.152-4.96 2.942-6.57 5.23a15.233 15.233 0 00-2.74 7.786l-.67 14.42zM1394.753 917.945l2.69-14.184c.4-2.382 1.47-4.522 2.95-6.324 1.44-1.761 3.32-3.176 5.52-4.016 1.05-.444 2.15-.897 3.26-1.384 1.63-.711 3.27-1.474 4.85-2.188 1.38-.648 2.62-1.534 3.6-2.655a10.744 10.744 0 002.19-3.802c.43-1.393.6-2.834.45-4.257a10.291 10.291 0 00-1.24-3.978l-1.91-3.366 1.37 3.62c.46 1.214.66 2.489.61 3.763a9.069 9.069 0 01-.89 3.59c-.51 1.112-1.26 2.072-2.15 2.876a8.748 8.748 0 01-3.02 1.768c-1.63.592-3.34 1.19-5 1.815-1.14.427-2.24.873-3.3 1.285-2.67 1.152-4.96 2.942-6.57 5.23a15.233 15.233 0 00-2.74 7.786l-.67 14.42z" fill="#eae9e7"/><g><path fill="#78e6d0" fill-opacity=".15" d="M1197.969 767.2l19.983-6.808 6.809 19.982-19.983 6.81z"/></g><g><path fill="#ba93df" fill-opacity=".15" d="M1239.876 719.246l12.878 6.707-6.707 12.88-12.88-6.709z"/></g><g><path fill="#6cd1ef" fill-opacity=".15" d="M1171.05 947.741l15.167 6.078-6.077 15.166-15.167-6.077z"/></g><g><path fill="#78e6d0" fill-opacity=".15" d="M1448.807 782.505l15.984 4.226-4.226 15.984-15.984-4.227z"/></g><g transform="translate(9.794 217.202)"><circle cx="1250.57" cy="630.886" r="7.609" fill="#ba93df" fill-opacity=".15"/></g><circle cx="1434.75" cy="833.442" r="3.585" fill="#6cd1ef" fill-opacity=".15"/><g transform="translate(33.355 52.067)"><circle cx="1142.24" cy="758.416" r="10.622" fill="#ffcfd8" fill-opacity=".15"/></g></g></g></g></svg>